<?xml version="1.0" encoding="utf-8"?>
<!-- Generator: Adobe Illustrator 22.1.0, SVG Export Plug-In . SVG Version: 6.00 Build 0)  -->
<svg version="1.1" id="Layer_1" xmlns="http://www.w3.org/2000/svg" xmlns:xlink="http://www.w3.org/1999/xlink" x="0px" y="0px"
	 viewBox="0 0 50 50" style="enable-background:new 0 0 50 50;" xml:space="preserve">
<style type="text/css">
	.st0{fill:#333333;}
</style>
<title>holidayHome</title>
<g>
	<path class="st0" d="M6.4,41.1v-1.2c0-5.8,0-11.5,0-17.3c0-4.5,0-9,0-13.6C6.4,8.2,6.6,8,7.5,8h7c0.9,0,1.2,0.3,1.2,1.2
		c0,1.3,0,2.5,0,4l9.6-9.3c1,1,1.9,2,2.8,2.9c4.1,4.1,8.2,8.2,12.3,12.3c1,1,2,2,3,3.1c0.3,0.3,0.4,0.7,0.5,1.1c0,5.6,0,11.3,0,16.9
		v0.9c1.4,0,2.8,0,4.1,0c0.4,0.1,0.8,0.3,1,0.7c0.1,0.2-0.1,0.7-0.4,1S48,43,47.7,43c-4.6,0-9.1,0-13.7,0H23.3c-7,0-14,0-20.9,0
		c-0.5,0-1,0-1.2-0.6s0.2-1.3,1-1.3C3.5,41.1,4.9,41.1,6.4,41.1z M15.7,41.1c0-0.1,0-0.3,0.1-0.5c0-3.9,0-7.7,0-11.6
		c0-1.1,0.2-1.4,1.3-1.4c1.5,0,3,0,4.5,0c3.4,0,6.9-0.1,10.3,0c2.2,0,2.2,0.1,2.2,2.3c0,3.4,0,6.8-0.1,10.2c0,0.3,0,0.6,0,0.9h7.8
		c0-5.8,0-11.5,0-17.2c0-0.3-0.1-0.5-0.3-0.7c-2-2.1-4-4.1-6.1-6.2c-2.5-2.5-5.1-5.1-7.6-7.6c-0.9-0.9-1.8-1.8-2.7-2.7
		c-1.1,1.1-2.2,2-3.2,3c-3.7,3.7-7.5,7.3-11.2,11c-0.6,0.6-1.2,1.3-1.9,1.9c-0.4,0.2-0.6,0.7-0.5,1.1c0,5.5,0,11.1,0,16.6V41
		L15.7,41.1z M17.7,41.1h14.4V29.6H17.8L17.7,41.1z M8.3,20.3c1.5-1.4,2.8-2.8,4.2-4c1-0.7,1.5-2,1.3-3.2c-0.1-1.1-0.1-2.2,0-3.3
		H8.4c0,0.1,0,0.2-0.1,0.3C8.3,13.5,8.3,16.8,8.3,20.3z"/>
	<path class="st0" d="M25,12.7c2.2,0,4,1.8,4,4c0,0,0,0,0,0.1c0,2.2-1.8,4-4,3.9s-4-1.8-3.9-4C21,14.5,22.8,12.7,25,12.7z M25,14.6
		c-1.2,0-2.1,0.9-2.2,2.1c0.1,1.1,0.9,2,2.1,2.2c1.2,0,2.1-0.9,2.2-2.1C27,15.6,26.1,14.7,25,14.6z"/>
</g>
</svg>
